<svg width="45" height="45" viewBox="0 0 45 45" fill="none" xmlns="http://www.w3.org/2000/svg">
<rect x="45" y="45" width="45" height="45" rx="22.5" transform="rotate(180 45 45)" fill="url(#paint0_angular_2_938)"/>
<path d="M27.4304 25.0791C27.4304 25.5861 27.3336 26.0618 27.1399 26.5061C26.9462 26.9504 26.6842 27.3378 26.3538 27.6682C26.0177 28.0043 25.6274 28.2692 25.1831 28.4629C24.7388 28.6566 24.2631 28.7534 23.7561 28.7534H18.1335V26.301H23.7561C23.927 26.301 24.0865 26.2697 24.2346 26.207C24.3827 26.1444 24.5138 26.0561 24.6277 25.9421C24.7359 25.8339 24.8214 25.7057 24.884 25.5576C24.9467 25.4095 24.978 25.25 24.978 25.0791C24.978 24.9082 24.9467 24.7458 24.884 24.592C24.8214 24.4439 24.7359 24.3129 24.6277 24.199C24.5138 24.0907 24.3827 24.0053 24.2346 23.9426C24.0865 23.88 23.927 23.8486 23.7561 23.8486H21.3037C20.7967 23.8486 20.321 23.7518 19.8767 23.5581C19.4267 23.3701 19.0365 23.1081 18.7061 22.772C18.37 22.4416 18.1079 22.0514 17.9199 21.6013C17.7262 21.157 17.6294 20.6813 17.6294 20.1743C17.6294 19.6673 17.7262 19.1917 17.9199 18.7473C18.1079 18.303 18.37 17.9128 18.7061 17.5767C19.0365 17.2463 19.4267 16.9842 19.8767 16.7905C20.321 16.5968 20.7967 16.5 21.3037 16.5H26.7468V18.9524H21.3037C21.1328 18.9524 20.9733 18.9837 20.8252 19.0464C20.6771 19.109 20.5489 19.1945 20.4407 19.3027C20.3267 19.4167 20.2384 19.5477 20.1758 19.6958C20.1131 19.8439 20.0818 20.0034 20.0818 20.1743C20.0818 20.3452 20.1131 20.5047 20.1758 20.6528C20.2384 20.8009 20.3267 20.9291 20.4407 21.0374C20.5489 21.1513 20.6771 21.2396 20.8252 21.3022C20.9733 21.3649 21.1328 21.3962 21.3037 21.3962H23.7561C24.2631 21.3962 24.7388 21.4931 25.1831 21.6868C25.6274 21.8805 26.0177 22.1425 26.3538 22.4729C26.6842 22.809 26.9462 23.1992 27.1399 23.6436C27.3336 24.0936 27.4304 24.5721 27.4304 25.0791Z" fill="white"/>
<defs>
<radialGradient id="paint0_angular_2_938" cx="0" cy="0" r="1" gradientUnits="userSpaceOnUse" gradientTransform="translate(67.5 79) rotate(90) scale(11)">
<stop stop-color="#0252CD"/>
<stop offset="1" stop-color="#0252CD" stop-opacity="0.33"/>
</radialGradient>
</defs>
</svg>
