<svg width="17" height="21" viewBox="0 0 17 21" fill="none" xmlns="http://www.w3.org/2000/svg">
<path d="M16.478 12.21C16.519 12.0193 16.5034 11.8208 16.4331 11.6388C16.3627 11.4569 16.2407 11.2995 16.082 11.186L2.08198 1.18603C1.92444 1.07275 1.73732 1.00779 1.54347 0.999109C1.34963 0.990424 1.15745 1.03838 0.990407 1.13712C0.823367 1.23586 0.688698 1.38111 0.602849 1.55512C0.517 1.72914 0.483688 1.92439 0.50698 2.11703L2.50698 19.117C2.53 19.3119 2.60986 19.4957 2.7366 19.6456C2.86335 19.7954 3.03138 19.9046 3.21976 19.9596C3.40814 20.0146 3.60855 20.013 3.79601 19.9549C3.98347 19.8969 4.14969 19.7849 4.27398 19.633L7.88598 15.217L11.263 20.677L12.964 19.625L9.60698 14.197L15.696 12.979C15.8873 12.9416 16.0635 12.8487 16.2025 12.712C16.3415 12.5753 16.4373 12.4007 16.478 12.21Z" fill="white"/>
</svg>
