<svg width="20" height="20" viewBox="0 0 20 20" fill="none" xmlns="http://www.w3.org/2000/svg">
<path d="M17.523 14.977C17.0546 14.5284 16.5988 14.0669 16.156 13.593C15.784 13.215 15.56 12.94 15.56 12.94L12.76 11.603C13.881 10.3316 14.4997 8.69499 14.5 7C14.5 3.141 11.36 0 7.5 0C3.64 0 0.5 3.141 0.5 7C0.5 10.859 3.64 14 7.5 14C9.263 14 10.87 13.34 12.103 12.261L13.44 15.061C13.44 15.061 13.715 15.285 14.093 15.657C14.48 16.02 14.989 16.511 15.477 17.024L16.835 18.416L17.439 19.062L19.56 16.941L18.914 16.337C18.535 15.965 18.029 15.471 17.523 14.977ZM7.5 12C4.743 12 2.5 9.757 2.5 7C2.5 4.243 4.743 2 7.5 2C10.257 2 12.5 4.243 12.5 7C12.5 9.757 10.257 12 7.5 12Z" fill="white"/>
</svg>
